<svg width="175" height="29" viewBox="0 0 175 29" fill="none" xmlns="http://www.w3.org/2000/svg">
<g clip-path="url(#clip0_77_3527)">
<path d="M12.1523 1.73106C12.9727 1.73106 13.7109 1.87042 14.3672 2.14913C15.0469 2.40462 15.668 2.69494 16.2305 3.0201C16.8164 3.34527 17.3672 3.6472 17.8828 3.92592C18.3984 4.1814 18.9258 4.30913 19.4648 4.30913C19.8867 4.28592 20.3672 4.22785 20.9062 4.13494C21.375 4.04204 21.9141 3.90269 22.5234 3.71688C23.1562 3.50785 23.8594 3.20591 24.6328 2.81107C23.8594 3.5543 23.2266 4.1814 22.7344 4.69236C22.2656 5.18011 21.9023 5.58657 21.6445 5.91172C21.3398 6.28334 21.1172 6.57366 20.9766 6.7827C20.8359 7.03818 20.625 7.42141 20.3438 7.93237C20.0859 8.39689 19.7344 9.024 19.2891 9.81367C18.8438 10.5801 18.2812 11.5905 17.6016 12.8447C17.6016 11.2421 17.4375 9.99948 17.1094 9.1169C16.8047 8.23431 16.4648 7.56076 16.0898 7.09624C15.6445 6.56205 15.1406 6.22528 14.5781 6.08592C14.0625 6.01624 13.5469 6.10915 13.0312 6.36463C12.5156 6.59689 12 6.94528 11.4844 7.40979C10.9922 7.87431 10.5117 8.43173 10.0429 9.08206C9.59762 9.70916 9.18746 10.3711 8.81246 11.0679C8.4609 11.7646 8.16793 12.4731 7.93355 13.193C7.69918 13.8899 7.54684 14.5401 7.47652 15.144C7.40621 15.6783 7.39449 16.3053 7.44137 17.0253C7.48824 17.722 7.59371 18.4421 7.75777 19.1853C7.92184 19.9053 8.13277 20.6137 8.39058 21.3104C8.6484 22.0073 8.9648 22.6344 9.3398 23.1918C9.73824 23.7259 10.1836 24.1673 10.6758 24.5156C11.168 24.8408 11.7305 24.9918 12.3633 24.9686C13.0664 24.9221 13.7578 24.713 14.4375 24.3414C15.0234 24.0395 15.6211 23.575 16.2305 22.9479C16.8398 22.2976 17.3672 21.3802 17.8125 20.1956L23.0156 21.1363C21.5156 22.9479 20.0508 24.3066 18.6211 25.2124C17.2148 26.1182 15.9492 26.7569 14.8242 27.1285C13.5117 27.5466 12.2695 27.744 11.0977 27.7208C9.62105 27.5582 8.23824 27.1169 6.94918 26.397C5.66012 25.677 4.54684 24.806 3.60934 23.784C2.69527 22.7389 1.98043 21.6008 1.46481 20.3698C0.94918 19.1388 0.726523 17.9311 0.796836 16.7466C0.843711 15.9569 1.00777 15.0395 1.28902 13.9943C1.57027 12.9259 1.94527 11.8343 2.41402 10.7194C2.90621 9.60464 3.49215 8.51302 4.17184 7.44464C4.85152 6.37624 5.60152 5.42398 6.42184 4.58785C7.24215 3.72849 8.13277 3.04333 9.09371 2.53235C10.0781 1.99816 11.0977 1.73106 12.1523 1.73106ZM23.8672 11.904L30.3359 11.9737C29.9609 13.3905 29.6797 14.5982 29.4922 15.5969C29.3281 16.5956 29.2227 17.4318 29.1758 18.1053C29.082 18.8718 29.0586 19.5221 29.1055 20.0563C29.1758 20.544 29.293 21.0666 29.457 21.6241C29.5977 22.0886 29.8086 22.6228 30.0898 23.2266C30.3711 23.8305 30.7461 24.4344 31.2148 25.0383C30.9336 24.9453 30.6289 24.8757 30.3008 24.8292C29.9727 24.7827 29.668 24.7479 29.3867 24.7247C29.0586 24.7014 28.7305 24.7014 28.4023 24.7247C28.0742 24.7479 27.7109 24.7827 27.3125 24.8292C26.9844 24.8757 26.5859 24.9337 26.1172 25.0034C25.6484 25.0731 25.1562 25.166 24.6406 25.2822C24.9922 24.237 25.2617 23.3311 25.4492 22.5647C25.6602 21.7982 25.8125 21.1595 25.9062 20.6486C26 20.0447 26.0586 19.5569 26.082 19.1853C26.082 18.7208 26.082 18.1982 26.082 17.6176C26.082 17.0137 26.082 16.4331 26.082 15.8757C26.082 15.3182 26.0703 14.8305 26.0469 14.4124C26.0234 13.9711 25.9766 13.6924 25.9062 13.5763L25.5547 13.2279C25.4141 13.1117 25.2031 12.9491 24.9219 12.7401C24.6641 12.5078 24.3125 12.2292 23.8672 11.904ZM26.3633 6.53882C26.8555 6.28334 27.3477 6.21366 27.8398 6.32979C28.3555 6.44592 28.7539 6.66657 29.0352 6.99172C29.3164 7.31689 29.4102 7.70012 29.3164 8.14141C29.2461 8.5827 28.8711 9.01238 28.1914 9.43044C27.5117 9.82529 26.9141 9.96464 26.3984 9.84852C25.8828 9.73238 25.5195 9.48852 25.3086 9.1169C25.0977 8.74529 25.0625 8.3156 25.2031 7.82787C25.3438 7.31689 25.7305 6.88722 26.3633 6.53882ZM34.0703 23.6447C34.2344 22.8783 34.3516 22.2047 34.4219 21.6241C34.5156 21.0202 34.5859 20.5208 34.6328 20.1259C34.6797 19.6615 34.7031 19.2666 34.7031 18.9414C34.6797 18.5466 34.6562 18.0821 34.6328 17.5479C34.6328 16.9905 34.6094 16.4447 34.5625 15.9104C34.5391 15.353 34.5039 14.8653 34.457 14.4473C34.4102 14.0059 34.3516 13.6924 34.2812 13.5065C34.1875 13.3207 34.0586 13.1233 33.8945 12.9143C33.5664 12.5194 33.0859 12.1362 32.4531 11.7646C32.9922 11.6485 33.4492 11.5556 33.8242 11.486C34.2227 11.393 34.5508 11.3117 34.8086 11.2421C35.0898 11.1491 35.3359 11.0679 35.5469 10.9982C35.7344 10.9285 35.957 10.8589 36.2148 10.7892C36.4258 10.7427 36.6836 10.6847 36.9883 10.615C37.293 10.5453 37.6445 10.464 38.043 10.3711L37.9375 13.5414C38.6875 12.6589 39.4492 11.9969 40.2227 11.5556C40.9961 11.1143 41.7227 10.8008 42.4023 10.615C43.1758 10.3827 43.9375 10.2666 44.6875 10.2666C45.625 10.313 46.4922 10.464 47.2891 10.7194C48.1094 10.975 48.8125 11.2769 49.3984 11.6253C50.0078 11.9504 50.5 12.2989 50.875 12.6705C51.25 13.0421 51.4727 13.3672 51.543 13.646C51.8242 14.5517 51.8945 15.3879 51.7539 16.1543C51.6133 16.8976 51.4258 17.6292 51.1914 18.3492C50.9805 19.046 50.793 19.7427 50.6289 20.4395C50.4883 21.1363 50.5469 21.8912 50.8047 22.704C50.8984 22.913 50.9922 23.1221 51.0859 23.3311C51.1797 23.5169 51.2969 23.7027 51.4375 23.8886C51.5781 24.0744 51.7422 24.2254 51.9297 24.3414C51.6719 24.3182 51.4141 24.3066 51.1562 24.3066C50.8984 24.2834 50.6641 24.2602 50.4531 24.237C50.1953 24.2137 49.9609 24.1905 49.75 24.1673C49.5156 24.144 49.1992 24.1324 48.8008 24.1324C48.1211 24.1324 47.0664 24.1673 45.6367 24.237C45.8477 23.7492 46.0117 23.3427 46.1289 23.0176C46.2695 22.6692 46.3867 22.3905 46.4805 22.1814C46.5742 21.9259 46.6445 21.7285 46.6914 21.5892C46.9727 20.9156 47.1367 20.1492 47.1836 19.2899C47.2539 18.4305 47.1953 17.5595 47.0078 16.677C46.9375 16.375 46.8203 16.015 46.6562 15.5969C46.4922 15.1788 46.2695 14.7724 45.9883 14.3775C45.7305 13.9827 45.4141 13.646 45.0391 13.3672C44.6875 13.0886 44.2773 12.9259 43.8086 12.8795C43.3398 12.8331 42.8125 12.9491 42.2266 13.2279C41.6641 13.5065 41.0547 14.0176 40.3984 14.7608C39.9062 15.3879 39.5195 16.1543 39.2383 17.0602C38.9805 17.8266 38.8047 18.7905 38.7109 19.9517C38.6172 21.0899 38.7578 22.4253 39.1328 23.9582C38.8047 23.9117 38.5 23.8886 38.2188 23.8886C37.9375 23.8654 37.7031 23.8421 37.5156 23.8189C37.2812 23.7957 37.0703 23.7724 36.8828 23.7492C36.6719 23.7492 36.4375 23.7376 36.1797 23.7143C35.9453 23.7143 35.6523 23.7143 35.3008 23.7143C34.9492 23.6912 34.5391 23.6679 34.0703 23.6447ZM63.7148 21.8679C64.3711 21.8679 64.9805 21.7982 65.543 21.6589C66.0117 21.5427 66.457 21.3569 66.8789 21.1014C67.3242 20.8228 67.6172 20.4163 67.7578 19.8821C68.2266 19.975 68.625 20.0563 68.9531 20.1259C69.2812 20.1724 69.5625 20.2189 69.7969 20.2654C70.0547 20.335 70.2773 20.3814 70.4648 20.4047C70.6523 20.4512 70.875 20.4976 71.1328 20.544C71.3672 20.5905 71.6484 20.6486 71.9766 20.7182C72.3281 20.7647 72.7383 20.8344 73.207 20.9272C72.8555 20.8809 72.4922 20.9156 72.1172 21.0318C71.7656 21.1479 71.4258 21.2757 71.0977 21.415C70.7227 21.5776 70.3711 21.775 70.043 22.0073C69.832 22.1466 69.5859 22.3556 69.3047 22.6344C69.0469 22.913 68.6719 23.1802 68.1797 23.4357C67.6875 23.6912 67.0312 23.9117 66.2109 24.0976C65.4141 24.2602 64.3828 24.3182 63.1172 24.2718C61.5938 24.2254 60.3164 23.9582 59.2852 23.4705C58.2539 22.9595 57.4219 22.344 56.7891 21.6241C56.1562 20.8809 55.6992 20.0796 55.418 19.2202C55.1367 18.3608 54.9844 17.5595 54.9609 16.8163C54.9375 16.0731 55.1602 15.295 55.6289 14.4821C56.0977 13.6692 56.7539 12.9259 57.5977 12.2524C58.4648 11.5788 59.5078 11.033 60.7266 10.615C61.9453 10.1737 63.2812 9.95303 64.7344 9.95303C65.5781 9.95303 66.3516 10.0576 67.0547 10.2666C67.7812 10.4524 68.4375 10.7078 69.0234 11.033C69.6328 11.3582 70.1602 11.7298 70.6055 12.1478C71.0508 12.5427 71.4258 12.9491 71.7305 13.3672C72.0352 13.8085 72.293 14.2731 72.5039 14.7608C72.6914 15.1788 72.8438 15.655 72.9609 16.1892C73.0781 16.7233 73.1133 17.2692 73.0664 17.8266C71.2852 17.8731 69.8438 17.9079 68.7422 17.9311C67.6641 17.9543 66.8203 17.9659 66.2109 17.9659H64.6289H63.4336C63.0117 17.9659 62.4609 17.9776 61.7812 18.0008C61.1016 18.024 60.2695 18.0589 59.2852 18.1053C59.4023 19.0344 59.6953 19.7543 60.1641 20.2654C60.6562 20.753 61.1719 21.1246 61.7109 21.3802C62.3203 21.6589 62.9883 21.8215 63.7148 21.8679ZM60.5508 15.5969C61.3008 15.6434 61.9219 15.6783 62.4141 15.7014C62.9297 15.7246 63.3516 15.7479 63.6797 15.7711C64.0312 15.7943 64.3125 15.806 64.5234 15.806H65.4023C65.9883 15.806 67.0781 15.7711 68.6719 15.7014C68.6016 14.6795 68.3789 13.9014 68.0039 13.3672C67.6523 12.8331 67.2773 12.4382 66.8789 12.1827C66.4102 11.904 65.8945 11.7414 65.332 11.695C63.8086 11.7182 62.6719 12.0318 61.9219 12.6356C61.1953 13.2395 60.7383 14.2266 60.5508 15.5969ZM87.6289 1.20848C88.8945 1.25493 90.1719 1.48719 91.4609 1.90526C92.7734 2.3001 93.9805 2.95042 95.082 3.85623C96.1836 4.73882 97.1211 5.88849 97.8945 7.30528C98.668 8.69883 99.1484 10.4059 99.3359 12.4266C99.5 14.0757 99.2891 15.713 98.7031 17.3388C98.1406 18.9414 97.3555 20.4163 96.3477 21.7634C95.3398 23.1105 94.1797 24.2602 92.8672 25.2124C91.5547 26.1414 90.2422 26.7569 88.9297 27.0589C88.1328 27.2447 87.2539 27.268 86.293 27.1285C85.3555 26.966 84.3945 26.6757 83.4102 26.2576C82.4492 25.8163 81.5 25.2589 80.5625 24.5853C79.6484 23.9117 78.8164 23.1453 78.0664 22.286C77.3164 21.4034 76.6836 20.4512 76.168 19.4292C75.6758 18.4073 75.3711 17.3388 75.2539 16.224C75.1367 15.295 75.125 14.2731 75.2188 13.1582C75.3359 12.0201 75.5586 10.8937 75.8867 9.77883C76.2383 8.64077 76.7188 7.54915 77.3281 6.50399C77.9609 5.43559 78.7578 4.50656 79.7188 3.71688C80.6797 2.90397 81.8047 2.27687 83.0938 1.83558C84.4062 1.37106 85.918 1.16203 87.6289 1.20848ZM81.3359 15.3182C81.0078 17.8034 81.2422 19.8008 82.0391 21.3104C82.8594 22.8202 84.0898 23.7376 85.7305 24.0628C86.5273 24.2254 87.2891 24.0628 88.0156 23.575C88.7656 23.0641 89.4453 22.3324 90.0547 21.3802C90.6641 20.4279 91.1914 19.313 91.6367 18.0357C92.082 16.7582 92.4102 15.4227 92.6211 14.0292C92.832 12.6356 92.8438 11.3814 92.6562 10.2666C92.4922 9.12851 92.1992 8.16464 91.7773 7.37495C91.3555 6.56205 90.8398 5.93495 90.2305 5.49366C89.6445 5.05236 89.0352 4.8085 88.4023 4.76204C87.3008 4.69236 86.3398 4.98269 85.5195 5.63301C84.6992 6.26011 84.0078 7.08463 83.4453 8.10657C82.8828 9.12852 82.4258 10.2782 82.0742 11.5556C81.7461 12.8331 81.5 14.0873 81.3359 15.3182ZM102.227 23.6447C102.391 22.8783 102.508 22.2047 102.578 21.6241C102.672 21.0202 102.742 20.5208 102.789 20.1259C102.836 19.6615 102.859 19.2666 102.859 18.9414C102.836 18.5466 102.812 18.0821 102.789 17.5479C102.789 16.9905 102.766 16.4447 102.719 15.9104C102.695 15.353 102.66 14.8653 102.613 14.4473C102.566 14.0059 102.508 13.6924 102.438 13.5065C102.344 13.3207 102.215 13.1233 102.051 12.9143C101.723 12.5194 101.242 12.1362 100.609 11.7646C101.148 11.6485 101.605 11.5556 101.98 11.486C102.379 11.393 102.707 11.3117 102.965 11.2421C103.246 11.1491 103.492 11.0679 103.703 10.9982C103.891 10.9285 104.113 10.8589 104.371 10.7892C104.582 10.7427 104.84 10.6847 105.145 10.615C105.449 10.5453 105.801 10.464 106.199 10.3711L106.094 13.5414C106.844 12.6589 107.605 11.9969 108.379 11.5556C109.152 11.1143 109.879 10.8008 110.559 10.615C111.332 10.3827 112.094 10.2666 112.844 10.2666C113.781 10.313 114.648 10.464 115.445 10.7194C116.266 10.975 116.969 11.2769 117.555 11.6253C118.164 11.9504 118.656 12.2989 119.031 12.6705C119.406 13.0421 119.629 13.3672 119.699 13.646C119.98 14.5517 120.051 15.3879 119.91 16.1543C119.77 16.8976 119.582 17.6292 119.348 18.3492C119.137 19.046 118.949 19.7427 118.785 20.4395C118.645 21.1363 118.703 21.8912 118.961 22.704C119.055 22.913 119.148 23.1221 119.242 23.3311C119.336 23.5169 119.453 23.7027 119.594 23.8886C119.734 24.0744 119.898 24.2254 120.086 24.3414C119.828 24.3182 119.57 24.3066 119.312 24.3066C119.055 24.2834 118.82 24.2602 118.609 24.237C118.352 24.2137 118.117 24.1905 117.906 24.1673C117.672 24.144 117.355 24.1324 116.957 24.1324C116.277 24.1324 115.223 24.1673 113.793 24.237C114.004 23.7492 114.168 23.3427 114.285 23.0176C114.426 22.6692 114.543 22.3905 114.637 22.1814C114.73 21.9259 114.801 21.7285 114.848 21.5892C115.129 20.9156 115.293 20.1492 115.34 19.2899C115.41 18.4305 115.352 17.5595 115.164 16.677C115.094 16.375 114.977 16.015 114.812 15.5969C114.648 15.1788 114.426 14.7724 114.145 14.3775C113.887 13.9827 113.57 13.646 113.195 13.3672C112.844 13.0886 112.434 12.9259 111.965 12.8795C111.496 12.8331 110.969 12.9491 110.383 13.2279C109.82 13.5065 109.211 14.0176 108.555 14.7608C108.062 15.3879 107.676 16.1543 107.395 17.0602C107.137 17.8266 106.961 18.7905 106.867 19.9517C106.773 21.0899 106.914 22.4253 107.289 23.9582C106.961 23.9117 106.656 23.8886 106.375 23.8886C106.094 23.8654 105.859 23.8421 105.672 23.8189C105.438 23.7957 105.227 23.7724 105.039 23.7492C104.828 23.7492 104.594 23.7376 104.336 23.7143C104.102 23.7143 103.809 23.7143 103.457 23.7143C103.105 23.6912 102.695 23.6679 102.227 23.6447ZM131.871 21.8679C132.527 21.8679 133.137 21.7982 133.699 21.6589C134.168 21.5427 134.613 21.3569 135.035 21.1014C135.48 20.8228 135.773 20.4163 135.914 19.8821C136.383 19.975 136.781 20.0563 137.109 20.1259C137.438 20.1724 137.719 20.2189 137.953 20.2654C138.211 20.335 138.434 20.3814 138.621 20.4047C138.809 20.4512 139.031 20.4976 139.289 20.544C139.523 20.5905 139.805 20.6486 140.133 20.7182C140.484 20.7647 140.895 20.8344 141.363 20.9272C141.012 20.8809 140.648 20.9156 140.273 21.0318C139.922 21.1479 139.582 21.2757 139.254 21.415C138.879 21.5776 138.527 21.775 138.199 22.0073C137.988 22.1466 137.742 22.3556 137.461 22.6344C137.203 22.913 136.828 23.1802 136.336 23.4357C135.844 23.6912 135.188 23.9117 134.367 24.0976C133.57 24.2602 132.539 24.3182 131.273 24.2718C129.75 24.2254 128.473 23.9582 127.441 23.4705C126.41 22.9595 125.578 22.344 124.945 21.6241C124.312 20.8809 123.855 20.0796 123.574 19.2202C123.293 18.3608 123.141 17.5595 123.117 16.8163C123.094 16.0731 123.316 15.295 123.785 14.4821C124.254 13.6692 124.91 12.9259 125.754 12.2524C126.621 11.5788 127.664 11.033 128.883 10.615C130.102 10.1737 131.438 9.95303 132.891 9.95303C133.734 9.95303 134.508 10.0576 135.211 10.2666C135.938 10.4524 136.594 10.7078 137.18 11.033C137.789 11.3582 138.316 11.7298 138.762 12.1478C139.207 12.5427 139.582 12.9491 139.887 13.3672C140.191 13.8085 140.449 14.2731 140.66 14.7608C140.848 15.1788 141 15.655 141.117 16.1892C141.234 16.7233 141.27 17.2692 141.223 17.8266C139.441 17.8731 138 17.9079 136.898 17.9311C135.82 17.9543 134.977 17.9659 134.367 17.9659H132.785H131.59C131.168 17.9659 130.617 17.9776 129.938 18.0008C129.258 18.024 128.426 18.0589 127.441 18.1053C127.559 19.0344 127.852 19.7543 128.32 20.2654C128.812 20.753 129.328 21.1246 129.867 21.3802C130.477 21.6589 131.145 21.8215 131.871 21.8679ZM128.707 15.5969C129.457 15.6434 130.078 15.6783 130.57 15.7014C131.086 15.7246 131.508 15.7479 131.836 15.7711C132.188 15.7943 132.469 15.806 132.68 15.806H133.559C134.145 15.806 135.234 15.7711 136.828 15.7014C136.758 14.6795 136.535 13.9014 136.16 13.3672C135.809 12.8331 135.434 12.4382 135.035 12.1827C134.566 11.904 134.051 11.7414 133.488 11.695C131.965 11.7182 130.828 12.0318 130.078 12.6356C129.352 13.2395 128.895 14.2266 128.707 15.5969ZM144.043 2.91558C144.488 3.24075 144.934 3.48462 145.379 3.6472C145.848 3.78656 146.27 3.87946 146.645 3.92592C147.066 3.99559 147.488 4.00721 147.91 3.96075C148.309 3.9143 148.719 3.77494 149.141 3.54269C149.562 3.31042 150.055 3.06656 150.617 2.81107C151.18 2.55558 151.836 2.33494 152.586 2.14913C153.359 1.9401 154.285 1.83558 155.363 1.83558C155.832 1.83558 156.324 1.92849 156.84 2.11429C157.379 2.3001 157.895 2.54397 158.387 2.84591C158.879 3.12462 159.324 3.43817 159.723 3.78656C160.145 4.13494 160.461 4.48334 160.672 4.83172C160.906 5.18011 161.07 5.74915 161.164 6.53882C161.258 7.30528 161.293 8.14141 161.27 9.04722C161.246 9.95303 161.164 10.8473 161.023 11.7298C160.906 12.6124 160.73 13.3324 160.496 13.8899C160.215 14.3775 159.676 15.0047 158.879 15.7711C158.199 16.4215 157.18 17.2576 155.82 18.2796C154.461 19.3014 152.633 20.5208 150.336 21.9376C151.695 21.9143 152.832 21.8796 153.746 21.8331C154.684 21.7634 155.445 21.6938 156.031 21.6241C156.711 21.5311 157.25 21.4382 157.648 21.3453C158 21.206 158.375 21.0086 158.773 20.753C159.102 20.5208 159.453 20.2189 159.828 19.8473C160.227 19.4757 160.613 18.9879 160.988 18.384C161.059 19.6382 161.129 20.6253 161.199 21.3453C161.246 21.7634 161.281 22.1234 161.305 22.4253C161.328 22.704 161.352 23.0292 161.375 23.4008C161.398 23.7259 161.41 24.0976 161.41 24.5156C161.434 24.9337 161.469 25.375 161.516 25.8396C160.344 25.5376 159.277 25.3053 158.316 25.1427C157.355 24.9569 156.535 24.8292 155.855 24.7595C155.059 24.6667 154.344 24.6202 153.711 24.6202C153.055 24.6434 152.328 24.7014 151.531 24.7944C150.828 24.8873 149.984 25.0266 149 25.2124C148.039 25.375 146.949 25.6189 145.73 25.944C145.637 25.6886 145.555 25.4331 145.484 25.1776C145.414 24.8989 145.355 24.6318 145.309 24.3763C145.238 24.0976 145.18 23.8189 145.133 23.5401C145.086 23.2615 145.039 22.9944 144.992 22.7389C144.945 22.5066 144.91 22.2628 144.887 22.0073C144.863 21.7518 144.84 21.5079 144.816 21.2757C146.691 20.0912 148.215 19.0228 149.387 18.0705C150.559 17.095 151.484 16.2705 152.164 15.5969C152.938 14.8072 153.523 14.0873 153.922 13.4369C154.32 12.6473 154.648 11.7762 154.906 10.824C155.164 9.87174 155.246 8.98915 155.152 8.17625C155.082 7.36334 154.801 6.70141 154.309 6.19043C153.816 5.65624 153.031 5.42398 151.953 5.49366C151.25 5.54011 150.582 5.78399 149.949 6.22528C149.34 6.66657 148.777 7.20076 148.262 7.82787C147.746 8.45496 147.289 9.12852 146.891 9.84852C146.492 10.5453 146.152 11.2072 145.871 11.8343C145.613 12.4615 145.402 12.984 145.238 13.4021C145.098 13.8202 145.027 14.0408 145.027 14.064C145.004 14.1104 144.969 13.9362 144.922 13.5414C144.898 13.1466 144.863 12.6589 144.816 12.0782C144.793 11.4744 144.758 10.8473 144.711 10.1969C144.664 9.54658 144.617 9.00077 144.57 8.55948C144.547 8.21108 144.512 7.75818 144.465 7.20076C144.395 6.29495 144.254 4.86656 144.043 2.91558ZM164.863 5.87688C165.684 5.6214 166.352 5.41236 166.867 5.24978C167.383 5.06398 167.805 4.91301 168.133 4.79688C168.508 4.65753 168.789 4.52978 168.977 4.41365L169.82 3.99559C170.148 3.83301 170.57 3.62398 171.086 3.36849C171.602 3.08977 172.27 2.74139 173.09 2.32333C172.902 3.20591 172.762 4.04204 172.668 4.83172C172.598 5.59818 172.539 6.28334 172.492 6.88722C172.422 7.58399 172.387 8.2227 172.387 8.80335C172.363 9.29109 172.328 9.94142 172.281 10.7543C172.258 11.5672 172.223 12.4498 172.176 13.4021C172.129 14.3543 172.082 15.3298 172.035 16.3285C171.988 17.3272 171.953 18.2679 171.93 19.1505C171.93 20.0098 171.941 20.753 171.965 21.3802C172.012 22.0073 172.094 22.437 172.211 22.6692C172.328 22.9479 172.48 23.215 172.668 23.4705C172.832 23.7027 173.02 23.9698 173.23 24.2718C173.465 24.5505 173.746 24.8292 174.074 25.1079C173.535 25.2241 173.031 25.3285 172.562 25.4215C172.094 25.4912 171.684 25.5492 171.332 25.5957C170.91 25.6654 170.535 25.7234 170.207 25.7698C169.855 25.7931 169.375 25.8512 168.766 25.944C168.25 26.0137 167.594 26.1066 166.797 26.2228C166 26.3156 165.016 26.4202 163.844 26.5363C164.453 26.1647 164.934 25.8047 165.285 25.4563C165.66 25.1079 165.941 24.806 166.129 24.5505C166.34 24.2486 166.469 23.9582 166.516 23.6796C166.539 23.4938 166.574 22.9944 166.621 22.1814C166.691 21.3453 166.75 20.3698 166.797 19.255C166.867 18.1169 166.926 16.9091 166.973 15.6318C167.043 14.3311 167.09 13.1233 167.113 12.0085C167.137 10.8937 167.148 9.94142 167.148 9.15173C167.148 8.36206 167.113 7.88593 167.043 7.72335C166.949 7.56076 166.809 7.37495 166.621 7.16593C166.457 6.98012 166.234 6.7827 165.953 6.57366C165.695 6.36463 165.332 6.13237 164.863 5.87688Z" fill="white"/>
</g>
<defs>
<clipPath id="clip0_77_3527">
<rect width="174" height="27.7472" fill="white" transform="translate(0.5 0.720703)"/>
</clipPath>
</defs>
</svg>
