<svg width="204" height="83" viewBox="0 0 204 83" fill="none" xmlns="http://www.w3.org/2000/svg">
<g clip-path="url(#clip0_84_3660)">
<path d="M35.0005 67.1198C39.6146 67.1198 43.9708 64.8095 47.2666 62.4992C49.1581 61.1418 50.935 59.6112 52.6258 57.8497L48.9288 53.9798C45.9483 56.8966 40.0445 60.9974 35.459 60.9974C33.9974 60.9974 33.023 60.4777 31.848 58.3694C38.5256 56.5211 43.4549 51.4096 43.4549 46.6445C43.4549 42.2838 40.1878 39.4247 35.9176 39.4247C28.0649 39.4247 24.2246 48.5506 24.2246 55.0773C24.2246 61.4595 27.807 67.1198 35.0005 67.1198ZM31.1888 53.5467C31.1888 50.9764 31.6473 44.9407 36.5481 44.9407C37.4652 44.9407 38.1816 46.1824 38.1816 47.9153C38.1816 50.341 33.9114 53.5467 31.1888 53.5467ZM57.3355 43.5545C62.6662 37.0277 68.6847 28.4795 68.6847 21.1731C68.6847 15.946 67.7962 11.6719 61.9784 11.6719C54.2117 11.6719 49.6548 32.436 47.8206 43.7567C46.9035 49.4169 46.4164 54.0664 46.1011 57.4453C45.9292 59.4091 45.8145 61.1708 45.7573 62.7302C47.1329 63.5677 48.5658 64.2897 50.0847 64.9251C52.6927 66.0513 56.0173 67.1198 59.2557 67.1198H59.9723C60.6887 66.831 61.3765 66.5422 62.007 66.2245C63.1247 65.6758 64.3571 65.0117 65.0163 64.3474C70.4041 63.1057 74.3878 61.4018 78.6006 57.5609L76.3939 52.7958C73.3561 55.857 70.5475 57.1566 67.7676 58.8026C70.0316 55.2794 70.5188 52.2759 70.5188 48.3773C70.5188 43.6989 67.8535 39.3959 63.3826 39.3959C61.6344 39.3959 59.9435 41.1863 57.7941 43.8721L57.3355 43.5545ZM60.3735 45.9804C63.3826 45.9804 64.0992 47.6842 64.0992 49.5901C64.0992 54.0087 62.4369 61.575 58.4819 61.575C57.3642 61.575 56.1032 61.344 54.9855 61.113C54.355 60.9686 53.7245 60.8242 53.094 60.6221C53.1513 59.9578 53.2086 59.2359 53.2946 58.4562C53.4379 57.0988 53.6672 55.3371 54.0111 53.2579C54.8421 48.1173 57.7081 45.9804 60.3735 45.9804ZM63.1821 19.527C62.6088 27.7286 57.1349 35.2084 54.0111 41.273C54.9282 36.1902 58.5679 17.2167 61.7204 17.2167C63.01 17.2167 63.1821 19.2093 63.1821 19.527ZM76.4034 58.6871C76.6328 62.3548 76.69 67.4375 81.1322 67.4375C83.7975 67.4375 87.3799 61.8927 89.6153 57.2432C89.7013 60.1311 92.1661 62.9324 96.2643 62.9324C98.7003 62.9324 101.509 61.8927 104.031 60.2755V53.4889C103.2 54.0376 102.397 54.5574 101.624 54.9905C100.277 55.7704 98.6431 56.4635 97.4966 56.4635C94.4015 56.4635 93.6277 54.5863 93.6277 52.738C93.6277 51.8428 93.771 51.0053 93.9715 50.341C94.0576 49.9656 94.1722 49.6191 94.3155 49.2725C96.0064 45.4893 97.2101 43.9299 97.2101 41.8218C97.2101 40.4066 95.7485 39.3959 93.5417 39.3959C91.8794 39.3959 90.4464 40.3778 90.2172 41.4463L82.6799 59.5535L82.2786 59.5824L83.3963 41.3019C83.3677 40.2912 82.6225 39.3959 81.3329 39.3959C81.1322 39.3959 80.9889 39.4247 80.7883 39.4536L77.3492 40.0023C76.1169 40.2044 75.8876 42.4859 75.8876 46.4424C75.8876 49.5035 76.1169 51.9872 76.3462 57.7629L76.4034 58.6871ZM118.571 61.6039C118.571 58.6004 116.908 56.9255 113.727 56.9255C110.03 56.9255 108.483 59.6402 108.483 62.4414C108.483 65.7336 110.374 67.1198 113.183 67.1198C118.485 67.1198 118.571 62.0949 118.571 61.6039ZM141.192 55.1061C138.67 57.1854 134.371 61.575 131.649 61.575C130.474 61.575 130.187 60.4777 130.187 58.7449C130.187 53.4023 134.028 43.6122 134.028 41.0419C134.028 40.0312 133.569 39.3959 131.964 39.3959C130.245 39.3959 127.293 40.2044 126.748 42.1971C125.372 47.9729 122.85 56.4345 122.85 61.3152C122.85 64.8095 124.197 67.1198 128.181 67.1198C132.595 67.1198 138.441 63.5099 141.192 60.9686V55.1061ZM128.382 31.2809C128.382 33.9377 129.958 35.6705 133.311 35.6705C137.209 35.6705 138.871 33.1002 138.871 30.501C138.871 27.6132 136.664 26.458 133.999 26.458C129.757 26.458 128.382 29.5192 128.382 31.2809ZM152.408 45.2871C152.522 45.1717 152.494 53.46 152.837 55.0195C152.408 56.1458 151.92 57.1276 151.376 58.0229C150.459 59.5535 149.141 61.0264 147.765 61.0264C145.1 61.0264 144.555 59.3225 144.555 57.7919C144.555 53.9221 147.335 47.7708 152.408 45.2871ZM171.265 54.7885C170.119 55.7704 169.03 56.6367 167.97 57.4164C166.107 58.7449 163.986 60.0444 162.553 60.0444C161.034 60.0444 160.547 58.0229 160.547 55.828C160.547 54.0954 161.034 51.8717 161.407 50.8319C165.391 41.1285 170.119 33.158 171.122 22.2416C171.179 21.5197 171.208 20.8266 171.208 20.1623C171.208 15.7438 169.889 11.6719 166.278 11.6719C158.999 11.6719 152.637 26.1692 152.293 40.9843C143.581 41.7928 137.677 50.2256 137.677 57.5897C137.677 62.4126 140.027 67.1198 144.956 67.1198C148.453 67.1198 152.035 64.7517 154.872 61.9793C156.706 66.4556 160.202 67.091 161.264 67.091C163.155 67.091 165.877 65.6758 168.113 64.2896C169.431 63.4521 170.778 62.528 172.125 61.4595L171.265 54.7885ZM165.877 24.3499C165.504 28.4218 163.843 33.62 162.295 37.8941C161.377 40.3778 160.375 42.8614 159.285 45.3739V45.0851C159.285 43.9299 159.285 40.6376 159.601 36.8257C159.831 34.0243 161.321 18.3718 164.99 18.3718C165.677 18.3718 166.05 19.0649 166.05 21.1442C166.05 21.924 165.992 22.9925 165.877 24.3499Z" fill="#646464"/>
</g>
<defs>
<clipPath id="clip0_84_3660">
<rect width="155.55" height="59.6562" fill="white" transform="translate(24.2246 11.6719)"/>
</clipPath>
</defs>
</svg>
