<svg width="202" height="43" viewBox="0 0 202 43" fill="none" xmlns="http://www.w3.org/2000/svg">
<path d="M10.7297 3.51941C10.7297 4.52853 10.6995 5.71232 10.6391 7.07075C10.5787 8.39038 10.5183 9.3995 10.4579 10.0981C10.2768 12.0776 10.1862 14.057 10.1862 16.0364C10.1862 17.5113 10.2768 19.0444 10.4579 20.6357C12.33 18.8892 14.3531 17.6083 16.5271 16.7933C18.7012 15.9782 21.3281 15.5707 24.408 15.5707C26.6425 15.5707 28.7259 16.2111 30.6584 17.4919C32.5909 18.7727 33.8289 20.267 34.3724 21.9748C34.5536 23.4884 34.6441 25.332 34.6441 27.5055C34.6441 28.9028 34.7649 30.727 35.0065 32.9781C35.1273 33.832 35.4594 34.6276 36.0029 35.3651C36.6068 36.1025 37.4523 36.4712 38.5393 36.4712C39.0828 36.4712 39.5055 36.4518 39.8075 36.413C40.1698 36.3742 40.502 36.3548 40.8039 36.3548C41.6494 36.3548 42.2231 36.4906 42.525 36.7623C42.8874 37.034 43.0685 37.4221 43.0685 37.9267C43.0685 38.8582 42.3439 39.5568 40.8945 40.0226C39.4451 40.4883 38.1166 40.7212 36.9088 40.7212C32.5607 40.7212 29.5714 39.5568 27.9408 37.2281C27.035 35.9084 26.4613 34.2007 26.2197 32.1048C25.9782 29.9701 25.8574 27.4861 25.8574 24.6528C25.8574 21.8583 24.3778 20.4611 21.4187 20.4611C19.7882 20.4611 18.1275 21.0238 16.4366 22.1494C14.806 23.2362 13.4473 24.6916 12.3602 26.5158C11.2732 28.3012 10.7297 30.1642 10.7297 32.1048L10.8203 38.1596C10.8203 39.0134 10.307 39.6539 9.28034 40.0808C8.25371 40.4689 7.28747 40.663 6.38162 40.663C5.05304 40.663 3.84524 40.4107 2.75822 39.9061C1.6712 39.3628 1.12769 38.7612 1.12769 38.1013C1.55042 35.1904 1.76179 30.3194 1.76179 23.4884C1.76179 22.2464 1.61081 17.6472 1.30886 9.6906L1.03711 4.33447C1.03711 3.4806 1.64101 2.74316 2.84881 2.12216C4.05661 1.46235 5.41538 1.13244 6.92513 1.13244C8.25371 1.13244 9.21995 1.3265 9.82385 1.71463C10.4278 2.10275 10.7297 2.70435 10.7297 3.51941ZM54.3894 3.05366C56.503 3.1701 58.3449 3.53882 59.9151 4.15982C61.4852 4.742 62.2703 5.63469 62.2703 6.83788C62.2703 7.73057 61.606 8.4486 60.2774 8.99197C59.0092 9.49653 57.4693 9.74882 55.6576 9.74882C53.9063 9.74882 52.6985 9.45772 52.0342 8.87553C51.3699 8.29335 51.0378 7.69175 51.0378 7.07075C51.0378 5.90638 51.2189 4.93607 51.5813 4.15982C52.004 3.38357 52.94 3.01485 54.3894 3.05366ZM61.6362 28.8446V30.5329C61.6362 32.0466 61.6966 33.4827 61.8174 34.8411C61.9985 36.1607 62.2099 37.4998 62.4515 38.8582C62.3911 39.2463 61.9381 39.6539 61.0927 40.0808C60.2472 40.4689 59.4924 40.663 58.8281 40.663C57.6807 40.663 56.503 40.5271 55.2952 40.2554C54.1478 39.9449 53.4534 39.5762 53.2118 39.1493C52.8495 37.9073 52.6683 36.8011 52.6683 35.8308C52.6683 32.6482 52.5173 29.0774 52.2154 25.1186C51.9738 21.6254 51.853 19.1803 51.853 17.783C51.853 17.0844 52.3965 16.4828 53.4835 15.9782C54.5706 15.4737 55.718 15.2214 56.9258 15.2214C58.6771 15.2214 59.8849 15.4737 60.5492 15.9782C61.2739 16.4828 61.6362 17.2784 61.6362 18.3652V28.8446ZM92.8651 6.13925C91.0534 6.13925 89.9362 7.10957 89.5135 9.05019C89.0908 11.6894 88.8794 13.6883 88.8794 15.0467C90.0872 15.1243 91.3554 15.1632 92.6839 15.1632C93.5294 15.1632 94.6164 15.1243 95.945 15.0467L98.3002 14.9885C99.508 14.9885 100.414 15.1243 101.018 15.396C101.622 15.6677 101.924 16.1141 101.924 16.7351C101.924 17.5889 101.471 18.3264 100.565 18.9474C99.7194 19.5296 98.7229 19.8207 97.5755 19.8207C93.2275 19.8207 90.2985 19.9565 88.7888 20.2282C88.7888 22.5958 88.97 25.953 89.3323 30.3L89.5135 33.1528L89.8758 37.6938C89.9966 38.8194 89.8154 39.615 89.3323 40.0808C88.9096 40.5077 87.9735 40.7212 86.5242 40.7212C83.867 40.7212 82.1459 39.6927 81.3608 37.6356C80.8777 36.1219 80.4852 34.0066 80.1832 31.2898C79.8813 28.5729 79.7303 26.1471 79.7303 24.0124C79.7303 22.8868 79.8209 21.606 80.0021 20.17C79.8813 20.1312 79.5491 20.1118 79.0056 20.1118C78.4621 20.1118 78.0696 20.1312 77.828 20.17C76.0163 20.2476 74.6877 20.2864 73.8423 20.2864C73.2988 20.2864 72.7552 20.0535 72.2117 19.5878C71.6682 19.0832 71.3965 18.4816 71.3965 17.783C71.3965 17.3949 71.6078 17.0456 72.0306 16.7351C72.4533 16.3858 72.9666 16.1335 73.5705 15.9782C74.4764 15.6677 75.7747 15.5125 77.4657 15.5125L80.1832 15.5707C80.1832 10.0593 81.1495 6.23628 83.0819 4.1016C84.8936 2.08335 87.8829 1.07422 92.0499 1.07422C94.4655 1.07422 96.6697 1.46234 98.6626 2.2386C99.508 2.58791 100.142 3.01485 100.565 3.51941C101.048 4.02397 101.29 4.50913 101.29 4.97488C101.29 5.55707 100.927 6.15866 100.202 6.77966C99.5382 7.40066 98.5116 7.71116 97.1226 7.71116C96.5791 7.71116 95.8846 7.43947 95.0392 6.8961C94.7372 6.70203 94.4051 6.52738 94.0427 6.37213C93.6804 6.21688 93.2878 6.13925 92.8651 6.13925ZM119.755 31.4062C119.755 32.8811 120.087 34.026 120.751 34.8411C121.476 35.6174 122.381 36.0055 123.468 36.0055C124.072 36.0055 124.646 35.9861 125.19 35.9473C125.733 35.8696 126.277 35.8308 126.82 35.8308C127.424 35.8308 127.937 36.0249 128.36 36.413C128.843 36.8011 129.085 37.2281 129.085 37.6938C129.085 38.6253 128.39 39.3628 127.001 39.9061C125.673 40.4107 123.861 40.663 121.566 40.663C119.936 40.663 118.275 40.3525 116.584 39.7315C114.954 39.0717 113.595 38.0625 112.508 36.7041C111.421 35.3069 110.877 33.5797 110.877 31.5226C110.877 27.098 110.998 23.3526 111.24 20.2864C111.541 16.638 111.692 12.0388 111.692 6.48857C111.692 4.742 111.843 3.51941 112.145 2.82078C112.508 2.27741 113.081 1.86988 113.866 1.59819C114.712 1.28769 115.588 1.13244 116.493 1.13244C117.399 1.13244 118.184 1.22947 118.849 1.42353C119.573 1.6176 120.056 1.9281 120.298 2.35503C120.54 2.82078 120.691 3.28653 120.751 3.75228C120.872 4.17922 120.932 4.80022 120.932 5.61528C120.932 7.2066 120.842 8.73969 120.66 10.2146C120.54 11.9999 120.479 13.3002 120.479 14.1152C119.996 20.9462 119.755 26.7099 119.755 31.4062ZM141.141 3.05366C143.255 3.1701 145.097 3.53882 146.667 4.15982C148.237 4.742 149.022 5.63469 149.022 6.83788C149.022 7.73057 148.358 8.4486 147.029 8.99197C145.761 9.49653 144.221 9.74882 142.409 9.74882C140.658 9.74882 139.45 9.45772 138.786 8.87553C138.122 8.29335 137.789 7.69175 137.789 7.07075C137.789 5.90638 137.971 4.93607 138.333 4.15982C138.756 3.38357 139.692 3.01485 141.141 3.05366ZM148.388 28.8446V30.5329C148.388 32.0466 148.448 33.4827 148.569 34.8411C148.75 36.1607 148.962 37.4998 149.203 38.8582C149.203 39.3239 148.78 39.7509 147.935 40.139C147.09 40.4883 146.304 40.663 145.58 40.663C144.432 40.663 143.255 40.5271 142.047 40.2554C140.9 39.9449 140.205 39.5762 139.964 39.1493C139.601 37.9073 139.42 36.8011 139.42 35.8308C139.42 32.6482 139.269 29.0774 138.967 25.1186C138.726 21.6254 138.605 19.1803 138.605 17.783C138.605 17.0844 139.148 16.4828 140.235 15.9782C141.322 15.4737 142.47 15.2214 143.678 15.2214C145.429 15.2214 146.637 15.4737 147.301 15.9782C148.026 16.4828 148.388 17.2784 148.388 18.3652V28.8446ZM191.574 14.7556C192.782 14.7556 193.718 14.9497 194.382 15.3378C195.107 15.6871 195.469 16.1335 195.469 16.6768C195.469 17.065 195.348 17.4725 195.107 17.8994C194.926 18.2876 194.714 18.6951 194.473 19.122C193.084 21.2179 190.155 24.1483 185.686 27.9131C190.276 31.7167 193.99 34.1619 196.828 35.2486C197.07 35.3263 197.522 35.4621 198.187 35.6562C198.851 35.8502 199.364 36.0831 199.727 36.3548C200.149 36.6265 200.361 36.937 200.361 37.2863C200.361 38.1402 199.847 38.8388 198.821 39.3822C197.855 39.8867 196.677 40.139 195.288 40.139C192.933 40.139 190.366 39.3045 187.588 37.6356C184.81 35.9278 182.455 34.1425 180.523 32.2795C179.134 33.6379 177.533 34.9963 175.722 36.3548C173.97 37.6744 172.34 38.8 170.83 39.7315C170.226 40.1584 169.502 40.4883 168.656 40.7212C167.871 40.9541 167.086 41.0705 166.301 41.0705C165.214 41.0705 164.248 40.9153 163.402 40.6048C162.557 40.2943 162.134 39.7509 162.134 38.9746C162.134 38.7806 162.345 38.4701 162.768 38.0431C163.191 37.5774 163.432 37.3057 163.493 37.2281C164.217 36.413 165.184 35.5785 166.391 34.7247C167.599 33.832 168.354 33.2692 168.656 33.0363C169.381 32.4541 170.166 31.8914 171.011 31.348C171.494 30.9987 172.219 30.4553 173.185 29.7178C174.152 28.9804 174.816 28.3982 175.178 27.9713L172.008 25.1768C170.498 24.0512 169.2 23.1585 168.113 22.4987C167.026 21.8001 166.15 21.4508 165.486 21.4508C164.519 21.4508 163.613 21.6254 162.768 21.9748C162.043 22.2853 161.319 22.4405 160.594 22.4405C159.809 22.4405 159.205 22.3241 158.782 22.0912C158.36 21.8195 158.148 21.5284 158.148 21.2179C158.148 19.8983 158.963 18.7727 160.594 17.8412C162.225 16.8709 164.278 16.3858 166.754 16.3858C169.109 16.3858 171.192 16.9097 173.004 17.9577C174.876 18.9668 176.718 20.3252 178.53 22.033C178.771 22.1882 179.043 22.4405 179.345 22.7898C179.647 23.1391 179.949 23.4302 180.251 23.6631C180.915 23.0421 182.123 21.8389 183.874 20.0535C185.746 17.9188 186.864 16.6963 187.226 16.3858C188.494 15.299 189.944 14.7556 191.574 14.7556Z" fill="gray"/>
</svg>
