<svg width="50" height="32" viewBox="0 0 50 32" fill="none" xmlns="http://www.w3.org/2000/svg">
<path d="M8.67563 15V3.8H10.8356V15H8.67563ZM1.61963 15V3.8H3.77963V15H1.61963ZM3.47563 10.152V8.408H9.04363V10.152H3.47563ZM18.7095 15.192C17.6215 15.192 16.6615 14.9467 15.8295 14.456C14.9975 13.9653 14.3468 13.288 13.8775 12.424C13.4082 11.5493 13.1735 10.5413 13.1735 9.4C13.1735 8.25867 13.4082 7.256 13.8775 6.392C14.3468 5.51733 14.9975 4.83467 15.8295 4.344C16.6615 3.85333 17.6215 3.608 18.7095 3.608C19.8082 3.608 20.7735 3.85333 21.6055 4.344C22.4375 4.83467 23.0828 5.51733 23.5415 6.392C24.0108 7.256 24.2455 8.25867 24.2455 9.4C24.2455 10.5413 24.0108 11.5493 23.5415 12.424C23.0828 13.288 22.4375 13.9653 21.6055 14.456C20.7735 14.9467 19.8082 15.192 18.7095 15.192ZM18.7095 13.256C19.3922 13.256 19.9788 13.1013 20.4695 12.792C20.9708 12.472 21.3602 12.024 21.6375 11.448C21.9148 10.872 22.0535 10.1893 22.0535 9.4C22.0535 8.6 21.9148 7.91733 21.6375 7.352C21.3602 6.776 20.9708 6.33333 20.4695 6.024C19.9788 5.71467 19.3922 5.56 18.7095 5.56C18.0375 5.56 17.4508 5.71467 16.9495 6.024C16.4482 6.33333 16.0588 6.776 15.7815 7.352C15.5042 7.91733 15.3655 8.6 15.3655 9.4C15.3655 10.1893 15.5042 10.872 15.7815 11.448C16.0588 12.024 16.4482 12.472 16.9495 12.792C17.4508 13.1013 18.0375 13.256 18.7095 13.256ZM26.5884 15V3.8H29.1644L32.5884 10.792L35.9804 3.8H38.5564V15H36.3964V7.48L33.4364 13.432H31.7244L28.7484 7.48V15H26.5884ZM41.2603 15V3.8H48.6203V5.544H43.4203V8.472H48.1403V10.152H43.4203V13.256H48.6203V15H41.2603Z" fill="#100C09"/>
<circle cx="25" cy="28" r="4" fill="#E95102"/>
</svg>
