<svg width="24" height="25" viewBox="0 0 24 25" fill="none" xmlns="http://www.w3.org/2000/svg">
<path d="M13.0276 2.13623C14.1526 2.13923 14.7236 2.14523 15.2166 2.15923L15.4106 2.16623C15.6346 2.17423 15.8556 2.18423 16.1226 2.19623C17.1866 2.24623 17.9126 2.41423 18.5496 2.66123C19.2096 2.91523 19.7656 3.25923 20.3216 3.81423C20.8303 4.31396 21.2238 4.9187 21.4746 5.58623C21.7216 6.22323 21.8896 6.94923 21.9396 8.01423C21.9516 8.28023 21.9616 8.50123 21.9696 8.72623L21.9756 8.92023C21.9906 9.41223 21.9966 9.98323 21.9986 11.1082L21.9996 11.8542V13.1642C22.002 13.8936 21.9944 14.623 21.9766 15.3522L21.9706 15.5462C21.9626 15.7712 21.9526 15.9922 21.9406 16.2582C21.8906 17.3232 21.7206 18.0482 21.4746 18.6862C21.2238 19.3538 20.8303 19.9585 20.3216 20.4582C19.8219 20.9669 19.2171 21.3604 18.5496 21.6112C17.9126 21.8582 17.1866 22.0262 16.1226 22.0762L15.4106 22.1062L15.2166 22.1122C14.7236 22.1262 14.1526 22.1332 13.0276 22.1352L12.2816 22.1362H10.9726C10.2429 22.1388 9.51312 22.1311 8.78359 22.1132L8.58959 22.1072C8.3522 22.0982 8.11487 22.0879 7.87759 22.0762C6.81359 22.0262 6.08759 21.8582 5.44959 21.6112C4.78242 21.3603 4.17804 20.9668 3.67859 20.4582C3.16954 19.9586 2.7757 19.3538 2.52459 18.6862C2.27759 18.0492 2.10959 17.3232 2.05959 16.2582L2.02959 15.5462L2.02459 15.3522C2.00616 14.623 1.99782 13.8936 1.99959 13.1642V11.1082C1.99682 10.3788 2.00416 9.64943 2.02159 8.92023L2.02859 8.72623C2.03659 8.50123 2.04659 8.28023 2.05859 8.01423C2.10859 6.94923 2.27659 6.22423 2.52359 5.58623C2.77529 4.91843 3.16982 4.31367 3.67959 3.81423C4.17875 3.30578 4.78278 2.9123 5.44959 2.66123C6.08759 2.41423 6.81259 2.24623 7.87759 2.19623C8.14359 2.18423 8.36559 2.17423 8.58959 2.16623L8.78359 2.16023C9.51278 2.14246 10.2422 2.1348 10.9716 2.13723L13.0276 2.13623ZM11.9996 7.13623C10.6735 7.13623 9.40174 7.66301 8.46406 8.6007C7.52638 9.53838 6.99959 10.8101 6.99959 12.1362C6.99959 13.4623 7.52638 14.7341 8.46406 15.6718C9.40174 16.6094 10.6735 17.1362 11.9996 17.1362C13.3257 17.1362 14.5974 16.6094 15.5351 15.6718C16.4728 14.7341 16.9996 13.4623 16.9996 12.1362C16.9996 10.8101 16.4728 9.53838 15.5351 8.6007C14.5974 7.66301 13.3257 7.13623 11.9996 7.13623ZM11.9996 9.13623C12.3936 9.13616 12.7837 9.2137 13.1477 9.3644C13.5117 9.5151 13.8424 9.73603 14.1211 10.0146C14.3997 10.2931 14.6207 10.6238 14.7715 10.9877C14.9224 11.3517 15 11.7418 15.0001 12.1357C15.0002 12.5297 14.9226 12.9198 14.7719 13.2838C14.6212 13.6478 14.4003 13.9786 14.1218 14.2572C13.8432 14.5358 13.5126 14.7569 13.1486 14.9077C12.7847 15.0585 12.3946 15.1362 12.0006 15.1362C11.2049 15.1362 10.4419 14.8202 9.87927 14.2576C9.31666 13.6949 9.00059 12.9319 9.00059 12.1362C9.00059 11.3406 9.31666 10.5775 9.87927 10.0149C10.4419 9.4523 11.2049 9.13623 12.0006 9.13623M17.2506 5.63623C16.9191 5.63623 16.6011 5.76793 16.3667 6.00235C16.1323 6.23677 16.0006 6.55471 16.0006 6.88623C16.0006 7.21775 16.1323 7.53569 16.3667 7.77011C16.6011 8.00453 16.9191 8.13623 17.2506 8.13623C17.5821 8.13623 17.9001 8.00453 18.1345 7.77011C18.3689 7.53569 18.5006 7.21775 18.5006 6.88623C18.5006 6.55471 18.3689 6.23677 18.1345 6.00235C17.9001 5.76793 17.5821 5.63623 17.2506 5.63623Z" fill="white"/>
</svg>
