<svg width="34" height="34" viewBox="0 0 34 34" fill="none" xmlns="http://www.w3.org/2000/svg">
<path d="M17 20.5063L19.7271 22.1354C19.9868 22.3007 20.2409 22.295 20.4893 22.1184C20.7376 21.9418 20.8259 21.6996 20.7542 21.3917L20.0458 18.3104L22.4542 16.2208C22.6903 16.0083 22.7611 15.7548 22.6667 15.4601C22.5722 15.1654 22.3597 15.0058 22.0292 14.9812L18.8771 14.7333L17.6375 11.7937C17.5194 11.5104 17.3069 11.3687 17 11.3687C16.6931 11.3687 16.4806 11.5104 16.3625 11.7937L15.1229 14.7333L11.9708 14.9812C11.6403 15.0049 11.4278 15.1645 11.3333 15.4601C11.2389 15.7557 11.3097 16.0093 11.5458 16.2208L13.9542 18.3104L13.2458 21.3917C13.175 21.6986 13.2638 21.9409 13.5122 22.1184C13.7606 22.296 14.0141 22.3016 14.2729 22.1354L17 20.5063ZM12.2542 28.3333H8.5C7.72083 28.3333 7.05406 28.0561 6.49967 27.5017C5.94528 26.9474 5.66761 26.2801 5.66667 25.5V21.7458L2.93958 18.9833C2.67986 18.7 2.47917 18.3874 2.3375 18.0455C2.19583 17.7036 2.125 17.3551 2.125 17C2.125 16.6449 2.19583 16.2969 2.3375 15.9559C2.47917 15.615 2.67986 15.3019 2.93958 15.0167L5.66667 12.2542V8.5C5.66667 7.72083 5.94433 7.05406 6.49967 6.49967C7.055 5.94528 7.72178 5.66761 8.5 5.66667H12.2542L15.0167 2.93958C15.3 2.67986 15.6131 2.47917 15.9559 2.3375C16.2987 2.19583 16.6468 2.125 17 2.125C17.3532 2.125 17.7017 2.19583 18.0455 2.3375C18.3893 2.47917 18.7019 2.67986 18.9833 2.93958L21.7458 5.66667H25.5C26.2792 5.66667 26.9464 5.94433 27.5017 6.49967C28.0571 7.055 28.3343 7.72178 28.3333 8.5V12.2542L31.0604 15.0167C31.3201 15.3 31.5208 15.6131 31.6625 15.9559C31.8042 16.2987 31.875 16.6468 31.875 17C31.875 17.3532 31.8042 17.7017 31.6625 18.0455C31.5208 18.3893 31.3201 18.7019 31.0604 18.9833L28.3333 21.7458V25.5C28.3333 26.2792 28.0561 26.9464 27.5017 27.5017C26.9474 28.0571 26.2801 28.3343 25.5 28.3333H21.7458L18.9833 31.0604C18.7 31.3201 18.3874 31.5208 18.0455 31.6625C17.7036 31.8042 17.3551 31.875 17 31.875C16.6449 31.875 16.2969 31.8042 15.9559 31.6625C15.615 31.5208 15.3019 31.3201 15.0167 31.0604L12.2542 28.3333Z" fill="white"/>
</svg>
