<svg width="628" height="247" viewBox="0 0 628 247" fill="none" xmlns="http://www.w3.org/2000/svg">
<path d="M69.5616 196.035H42.4939V84.7601H1.70312V56.9171H110.258V84.7601H69.5616V196.035ZM147.926 196.035H121.899V92.1332H147.926V196.035ZM256.291 112.797L237.362 132.297C236.416 129.581 235.122 127.155 233.481 125.021C231.841 122.822 229.981 120.979 227.898 119.491C225.879 118.004 223.671 116.872 221.273 116.096C218.876 115.32 216.414 114.931 213.89 114.931C210.358 114.931 207.013 115.675 203.859 117.163C200.767 118.65 198.053 120.752 195.72 123.469C193.448 126.12 191.649 129.29 190.325 132.977C189 136.663 188.338 140.737 188.338 145.2C188.338 148.821 189 152.217 190.325 155.387C191.649 158.555 193.448 161.337 195.72 163.729C198.053 166.123 200.767 167.998 203.859 169.356C207.013 170.715 210.358 171.393 213.89 171.393C216.414 171.393 218.843 171.038 221.178 170.327C223.513 169.616 225.689 168.613 227.709 167.319C229.791 165.961 231.62 164.344 233.198 162.468C234.838 160.528 236.164 158.394 237.173 156.065L256.101 175.565C253.704 179.058 250.927 182.195 247.773 184.975C244.681 187.757 241.305 190.117 237.646 192.058C234.05 193.998 230.233 195.454 226.195 196.423C222.22 197.458 218.118 197.976 213.89 197.976C206.761 197.976 200.042 196.617 193.732 193.901C187.486 191.12 181.997 187.337 177.265 182.55C172.595 177.764 168.904 172.169 166.191 165.766C163.479 159.363 162.122 152.509 162.122 145.2C162.122 137.244 163.479 129.807 166.191 122.887C168.904 115.966 172.595 109.952 177.265 104.842C181.997 99.668 187.486 95.5934 193.732 92.6183C200.042 89.6432 206.761 88.1557 213.89 88.1557C218.118 88.1557 222.251 88.7054 226.289 89.8049C230.39 90.9044 234.271 92.5213 237.93 94.6556C241.653 96.7252 245.059 99.2799 248.151 102.32C251.306 105.36 254.019 108.852 256.291 112.797ZM294.999 196.035H268.972V50.8052H294.999V142.386L333.518 92.3273H363.237L329.639 135.595L363.237 196.035H333.518L312.981 158.297L294.999 182.745V196.035ZM399.484 196.035H373.458V92.1332H399.484V196.035ZM470.087 196.035C463.841 196.035 457.973 194.839 452.484 192.446C446.995 189.989 442.169 186.657 438.004 182.453C433.902 178.184 430.653 173.237 428.256 167.61C425.921 161.983 424.754 155.969 424.754 149.566V118.715H412.167V92.3273H424.754V50.8052H450.497V92.3273H489.678V118.715H450.497V149.566C450.497 152.347 451.001 154.966 452.011 157.424C453.02 159.816 454.408 161.918 456.174 163.729C457.942 165.541 460.024 166.996 462.421 168.095C464.819 169.131 467.374 169.647 470.087 169.647H489.678V196.035H470.087ZM583.374 196.035H498.859L541.542 118.715H498.859V92.3273H583.374L540.691 169.647H583.374V196.035Z" fill="white"/>
<path d="M617.346 115.562C617.326 115.55 617.304 115.544 617.283 115.533L608.831 110.528C608.305 111.142 607.587 111.551 606.798 111.684C606.011 111.817 605.204 111.666 604.513 111.257C603.821 110.848 603.289 110.205 603.007 109.439C602.727 108.673 602.713 107.831 602.97 107.056L594.458 102.016C594.229 101.881 593.958 101.845 593.703 101.915C593.449 101.985 593.231 102.155 593.099 102.389L567.83 147.255L567.829 147.258C567.763 147.373 567.72 147.501 567.704 147.634C567.687 147.768 567.696 147.901 567.729 148.031C567.763 148.161 567.821 148.282 567.901 148.389C567.98 148.495 568.08 148.584 568.193 148.651L576.707 153.684C577.235 153.071 577.952 152.663 578.739 152.529C579.526 152.397 580.333 152.548 581.025 152.956C581.716 153.365 582.247 154.006 582.529 154.771C582.812 155.535 582.826 156.376 582.573 157.151L590.977 162.119C591.011 162.146 591.043 162.174 591.08 162.196C591.194 162.264 591.318 162.306 591.449 162.325C591.578 162.342 591.71 162.333 591.835 162.298C591.962 162.264 592.079 162.204 592.184 162.122C592.287 162.041 592.374 161.939 592.44 161.823V161.824L617.71 116.955C617.775 116.839 617.818 116.711 617.835 116.578C617.852 116.446 617.844 116.311 617.809 116.181C617.775 116.052 617.717 115.931 617.638 115.824C617.558 115.718 617.459 115.629 617.346 115.562ZM610.1 119.045L590.401 154.021C590.335 154.137 590.248 154.239 590.145 154.32C590.041 154.402 589.923 154.462 589.797 154.496C589.671 154.531 589.539 154.54 589.41 154.523C589.28 154.506 589.155 154.462 589.041 154.394L575.804 146.56C575.69 146.492 575.591 146.403 575.512 146.297C575.432 146.191 575.374 146.069 575.34 145.941C575.307 145.811 575.298 145.676 575.314 145.544C575.333 145.411 575.374 145.283 575.44 145.167L595.139 110.191C595.271 109.957 595.488 109.786 595.743 109.716C595.997 109.646 596.268 109.683 596.497 109.818L609.737 117.653C609.849 117.72 609.949 117.809 610.028 117.915C610.108 118.022 610.166 118.143 610.199 118.272C610.233 118.401 610.242 118.536 610.225 118.669C610.207 118.801 610.166 118.929 610.1 119.045Z" fill="#E95102"/>
<path d="M599.49 131.171L595.297 130.372L594.707 126.262C594.698 126.202 594.671 126.145 594.63 126.101C594.589 126.057 594.534 126.027 594.476 126.016C594.417 126.004 594.356 126.011 594.302 126.037C594.247 126.062 594.202 126.104 594.171 126.157L592.139 129.768L588.049 128.989C587.991 128.978 587.93 128.985 587.876 129.011C587.822 129.036 587.776 129.078 587.747 129.131C587.717 129.184 587.704 129.245 587.709 129.306C587.714 129.367 587.738 129.425 587.776 129.471L590.481 132.713L588.446 136.322C588.416 136.376 588.403 136.437 588.409 136.498C588.415 136.56 588.439 136.619 588.478 136.665C588.517 136.711 588.57 136.743 588.628 136.758C588.686 136.772 588.747 136.768 588.802 136.746L592.568 135.215L595.341 138.538C595.379 138.583 595.431 138.616 595.489 138.631C595.546 138.645 595.607 138.641 595.662 138.62C595.718 138.599 595.765 138.56 595.798 138.51C595.832 138.46 595.85 138.4 595.848 138.339L595.776 133.883L599.578 131.719C599.629 131.689 599.672 131.644 599.698 131.589C599.724 131.534 599.733 131.472 599.724 131.412C599.713 131.352 599.685 131.297 599.644 131.254C599.602 131.211 599.548 131.182 599.49 131.171Z" fill="#E95102"/>
<path d="M150.955 70.7906C151.903 68.6563 152.375 66.3603 152.375 63.9025C152.375 61.5096 151.903 59.2459 150.955 57.1116C150.073 54.9126 148.843 53.037 147.265 51.4847C145.687 49.8678 143.826 48.6067 141.681 47.7013C139.598 46.7311 137.359 46.2461 134.961 46.2461C132.564 46.2461 130.292 46.7311 128.147 47.7013C126.065 48.6067 124.235 49.8678 122.658 51.4847C121.143 53.037 119.913 54.9126 118.967 57.1116C118.083 59.2459 117.642 61.5096 117.642 63.9025C117.642 66.3603 118.083 68.6563 118.967 70.7906C119.913 72.925 121.143 74.8005 122.658 76.4174C124.235 77.9697 126.065 79.2308 128.147 80.2009C130.292 81.1064 132.564 81.5591 134.961 81.5591C137.359 81.5591 139.598 81.1064 141.681 80.2009C143.826 79.2308 145.687 77.9697 147.265 76.4174C148.843 74.8005 150.073 72.925 150.955 70.7906Z" fill="#E95102"/>
<path d="M402.515 70.7906C403.46 68.6563 403.935 66.3603 403.935 63.9025C403.935 61.5096 403.46 59.2459 402.515 57.1116C401.631 54.9126 400.401 53.037 398.824 51.4847C397.246 49.8678 395.384 48.6067 393.239 47.7013C391.158 46.7311 388.918 46.2461 386.52 46.2461C384.123 46.2461 381.851 46.7311 379.706 47.7013C377.623 48.6067 375.794 49.8678 374.217 51.4847C372.703 53.037 371.473 54.9126 370.525 57.1116C369.643 59.2459 369.201 61.5096 369.201 63.9025C369.201 66.3603 369.643 68.6563 370.525 70.7906C371.473 72.925 372.703 74.8005 374.217 76.4174C375.794 77.9697 377.623 79.2308 379.706 80.2009C381.851 81.1064 384.123 81.5591 386.52 81.5591C388.918 81.5591 391.158 81.1064 393.239 80.2009C395.384 79.2308 397.246 77.9697 398.824 76.4174C400.401 74.8005 401.631 72.925 402.515 70.7906Z" fill="#E95102"/>
</svg>
