<svg width="24" height="25" viewBox="0 0 24 25" fill="none" xmlns="http://www.w3.org/2000/svg">
<path d="M12.244 4.13623C12.778 4.13923 14.114 4.15223 15.534 4.20923L16.038 4.23123C17.467 4.29823 18.895 4.41423 19.604 4.61123C20.549 4.87723 21.291 5.65123 21.542 6.63323C21.942 8.19323 21.992 11.2352 21.998 11.9722L21.999 12.1242V12.2982C21.992 13.0352 21.942 16.0782 21.542 17.6372C21.288 18.6222 20.545 19.3972 19.604 19.6592C18.895 19.8562 17.467 19.9722 16.038 20.0392L15.534 20.0622C14.114 20.1182 12.778 20.1322 12.244 20.1342L12.009 20.1352H11.754C10.624 20.1282 5.898 20.0772 4.394 19.6592C3.45 19.3932 2.707 18.6192 2.456 17.6372C2.056 16.0772 2.006 13.0352 2 12.2982V11.9722C2.006 11.2352 2.056 8.19223 2.456 6.63323C2.71 5.64823 3.453 4.87323 4.395 4.61223C5.898 4.19323 10.625 4.14223 11.755 4.13623H12.244ZM9.999 8.63623V15.6362L15.999 12.1362L9.999 8.63623Z" fill="white"/>
</svg>
